<svg xmlns="http://www.w3.org/2000/svg" viewBox="0 0 1533.85 341.63"><defs><style>.cls-1{fill:#b49a5a;}.cls-2{fill:#363636;}</style></defs><title>Asset 1</title><g id="Layer_2" data-name="Layer 2"><g id="Camada_1" data-name="Camada 1"><path class="cls-1" d="M102.83,324.25C55.79,306.13,1.33,251.88,0,172.31A169.1,169.1,0,0,1,323,99c32.37,71,10.85,151-42.11,196.72v-8.5c0-4.79-1.1-10,.34-14.26,1.38-4.15,5.43-7.4,8.25-11.1,22.47-29.48,33.14-62.81,31.45-99.78a151.74,151.74,0,0,0-125-142.5C114.09,4.85,35.12,59.08,19.72,140.58A152,152,0,0,0,99.85,304.36c2.21,1.13,3.14,2.32,3,4.84C102.68,314.16,102.83,319.14,102.83,324.25Z"/><path class="cls-2" d="M275,275.5c-5.48,2.56-3.88,6.59-3.45,10.29.87,7.6,1.76,15.2,2.67,23H261.72c.46-4.17.88-8.25,1.35-12.31.52-4.44,1.06-8.87,1.65-13.3.41-3.09,1.18-6.28-3.42-6.95,1.6-1.67,3.44-2.84,4.09-4.48s.17-3.77.16-5.69q0-5.26-.06-10.53c0-.17-.17-.34-.43-.84L251.77,262c-6.17-7.75-14.41-12.41-23.45-15.85a122.36,122.36,0,0,0-34.2-7.22c-18.61-1.47-37.21-1.4-55.68,1.8-11,1.91-21.82,4.85-31.46,10.8-4,2.49-7.62,5.67-11.68,8.74L64.91,242c1.26-.74,2.16-1.36,3.13-1.85q50.67-25.89,101.35-51.78a9.31,9.31,0,0,1,9.12,0q50.69,26.24,101.4,52.4c.93.48,1.77,1.13,3.12,2-3.17,2.14-5.94,4.2-8.89,5.95a7,7,0,0,0-3.84,7.35,86.58,86.58,0,0,1-.23,9.24C270,269.35,268.67,273.83,275,275.5Z"/><path class="cls-2" d="M175.38,48.41c18.22,5,31.7,22.31,31.86,41,.06,7.33-.63,14.66-.89,22a48.82,48.82,0,0,0,.19,8.89c.65,4.33,3.52,6.22,7.82,5.36,3.94-.8,7.82-1.95,12.18-3.06.3,1.83.69,3.64.88,5.47,1.14,11,.89,21.87-4.1,32.14-4.86,10-12.36,16.89-23.08,20.12-1,.3-2,.46-3.58.83,4.91-10.27,12.7-19.23,8.5-31.65-.79.64-1.51,1.18-2.18,1.78-1.19,1.07-2.28,2.25-3.51,3.26-2.18,1.78-4.6,3.52-7.51,2.13s-2.85-4.54-2.54-7.29c.63-5.49,1.76-10.92,2.15-16.42.49-6.92-1.64-13.14-7-19.21,0,2.4,0,3.91,0,5.43-.15,14.72-4.55,27.57-16.31,37.23a27.78,27.78,0,0,1-14.48,6.16c-5.69.69-10-1.91-12.73-6.72-2-3.39-3.37-7.09-5-10.66-.52-1.13-1-2.28-1.76-4-6.76,15.85.85,27.36,9.46,39.17a47.93,47.93,0,0,1-6.26-1.31c-14.19-5-22.68-14.94-25.17-29.77-3.46-20.6,3.54-37.27,19.66-50.15,5.53-4.42,11.56-8.21,18.06-12.77-.49,3.47-.95,6-1.17,8.47a22.78,22.78,0,0,0-.07,6.33c1.62,8.25,7.31,11.75,14.9,8.37,12.51-5.56,19.51-15.61,21.38-29.18.16-1.15.13-2.33.21-3.5C186.07,66,184.57,55.89,175.38,48.41Z"/><path class="cls-2" d="M225.21,341.63,210,337.35v-3.83l.06-40.86c0-.32,0-.64,0-1-.06-5.16-2.89-8.52-7.35-8.73s-7.44,3.06-7.53,8.46c-.19,10.63-.16,21.27-.22,31.91,0,3.6,0,7.2,0,11.23l-15.42-1.48c0-8.53,0-16.91,0-25.28,0-5.53,0-11.07-.1-16.6-.09-4.74-2.73-7.78-6.61-7.84-4.79-.08-8.22,2.92-8.27,7.78-.13,12.12,0,24.25,0,36.38v5.32l-15.67.92c0-9.12,0-18,0-26.95,0-5.21.08-10.43-.14-15.64-.22-4.9-3.34-7.9-7.56-7.72s-7.14,3.35-7.27,8.09c0,.64,0,1.28,0,1.92,0,13,0,26,.09,38.94,0,2.6-.35,4-3.38,4.39-4,.51-7.83,1.74-12.22,2.77,0-2.25,0-4.25,0-6.25q.09-20.1.18-40.21c0-1.7-.12-3.4-.27-5.09-.27-2.84-1.82-4.53-4.72-4.63-2.3-.08-2.73-1.14-3-3.36-.69-5,1.34-8.19,5.32-10.92,8.18-5.59,17.33-8.54,26.95-10.05,21.94-3.46,43.85-3.46,65.59,1.54a58.17,58.17,0,0,1,20.85,9.24c3.93,2.79,5.51,7.29,3.82,11.71a2.82,2.82,0,0,1-1.91,1.2c-4.46.86-5.59,2-5.75,6.52-.13,4,0,8.08,0,12.13q0,18.51,0,37C225.36,339.36,225.28,340.31,225.21,341.63Z"/><path class="cls-1" d="M254.66,295c0,6.43,0,12.46,0,18.5a2.72,2.72,0,0,1-1.09,2c-4.7,2.6-9.48,5.08-14.78,7.89,0-6.49,0-12.29,0-18.09a2.43,2.43,0,0,1,1.07-1.69C244.58,300.84,249.36,298.11,254.66,295Z"/><path class="cls-2" d="M414.6,141.44c0-23.83,0-28.1-.31-33-.3-5.19-1.53-7.64-6.56-8.71a29.17,29.17,0,0,0-5.2-.45c-.61,0-1.22-.31-1.22-.92,0-.92.76-1.22,2.44-1.22,6.88,0,16,.46,17.26.46,3.36,0,12.22-.46,19.25-.46,19.09,0,26,6.41,28.4,8.7,3.36,3.21,7.64,10.08,7.64,20,0,19.85-15.89,34.52-37.57,34.52a21.51,21.51,0,0,1-3.21-.16c-.76,0-1.68-.3-1.68-1.07,0-1.22.92-1.37,4.12-1.37,14.82,0,26.43-10.08,26.43-26.12,0-3.81-.46-14-8.56-22.29s-17.41-7.64-20.92-7.64a18.81,18.81,0,0,0-6.57.92c-.91.3-1.22,1.37-1.22,2.9v62.77c0,14.66,0,26.72.76,33.14.46,4.43,1.38,7.79,6,8.4a68.26,68.26,0,0,0,6.87.61c.92,0,1.23.46,1.23.92,0,.76-.77,1.22-2.45,1.22-8.4,0-18-.46-18.78-.46-.46,0-10.08.46-14.66.46-1.68,0-2.45-.31-2.45-1.22,0-.46.31-.92,1.22-.92a23.88,23.88,0,0,0,4.58-.61c3.06-.61,3.82-4,4.43-8.4.77-6.42.77-18.48.77-33.14Z"/><path class="cls-2" d="M509.44,141.44c0-23.83,0-28.1-.31-33-.31-5.19-1.53-7.64-6.57-8.71a29.06,29.06,0,0,0-5.19-.45c-.61,0-1.22-.31-1.22-.92,0-.92.76-1.22,2.44-1.22,6.87,0,16.5.46,17.26.46,1.68,0,13.29-.46,18-.46,9.62,0,19.86.91,28,6.72,3.82,2.75,10.54,10.23,10.54,20.77,0,11.3-4.74,22.6-18.48,35.28,12.52,16,22.91,29.63,31.76,39.09,8.25,8.71,14.82,10.39,18.64,11a36.45,36.45,0,0,0,6,.46c.77,0,1.38.46,1.38.92,0,.91-.92,1.22-3.67,1.22H597.1c-8.55,0-12.37-.77-16.34-2.9-6.57-3.52-11.91-11-20.62-22.46-6.41-8.4-13.59-18.63-16.65-22.6a2.46,2.46,0,0,0-2-.91l-18.79-.31c-.76,0-1.07.46-1.07,1.22v3.67c0,14.66,0,26.72.77,33.14.46,4.43,1.37,7.79,6,8.4a68.18,68.18,0,0,0,6.88.61c.91,0,1.22.46,1.22.92,0,.76-.77,1.22-2.45,1.22-8.4,0-18-.46-18.78-.46-.15,0-9.78.46-14.36.46-1.68,0-2.44-.31-2.44-1.22,0-.46.3-.92,1.22-.92a23.88,23.88,0,0,0,4.58-.61c3.06-.61,3.82-4,4.43-8.4.77-6.42.77-18.48.77-33.14Zm12.21,13.28a2,2,0,0,0,1.07,1.84c2.29,1.37,9.32,2.44,16,2.44,3.66,0,7.94-.46,11.45-2.9,5.35-3.67,9.32-11.91,9.32-23.52,0-19.09-10.08-30.54-26.42-30.54a46,46,0,0,0-10.23.91,1.85,1.85,0,0,0-1.23,1.83Z"/><path class="cls-2" d="M607.94,154.72C607.94,130,626,95,668.11,95c34.36,0,60,21.69,60,57.27,0,34.21-24.13,62.46-60.94,62.46C625.35,214.74,607.94,182.22,607.94,154.72Zm105.53,1.84c0-36.66-22.3-56.36-46.43-56.36-25.51,0-44.6,16.8-44.6,50.25,0,35.58,21.39,58.49,48.88,58.49C685.06,208.94,713.47,201,713.47,156.56Z"/><path class="cls-2" d="M878.71,192.91c.61,5.49,1.68,14.05,8.24,16.18a30.59,30.59,0,0,0,9.47,1.38c.77,0,1.68.15,1.68.92s-.46,1.22-2.29,1.22c-3.36,0-20.77-.46-26.42-.92-3.51-.3-4.27-.76-4.27-1.53,0-.61.3-.76,1.06-1.07,1.07-.45.92-2.74.61-5.49l-7.33-79.73-37.87,80.34c-3.21,6.72-3.67,8.09-5,8.09-1.07,0-1.83-1.53-4.74-7-4-7.49-17.1-33.91-17.86-35.44-1.38-2.74-18.94-40.47-20.62-44.59l-6.26,71.93c-.16,2.45-.31,4.58-.31,7.18,0,3.82,1.83,5,4.12,5.5a23,23,0,0,0,5.5.61c.92,0,1.53.3,1.53.76,0,1.07-.76,1.38-2.29,1.38-5.65,0-13.44-.46-14.66-.46-1.38,0-8.71.46-12.83.46-1.53,0-2.6-.16-2.6-1.22,0-.62.77-.92,1.53-.92a19.55,19.55,0,0,0,4.58-.46c5-.92,5.35-6.41,6.11-12.68l11-99.27c.15-1.68.76-3,1.68-3s1.52.61,2.29,2.29l46.73,96.06,44.9-95.91c.61-1.37,1.22-2.44,2.29-2.44s1.53,1.22,1.83,4.12Z"/><path class="cls-2" d="M925.43,141.44c0-23.83,0-28.1-.3-33-.31-5.19-1.53-7.64-6.57-8.71a36.55,36.55,0,0,0-4.43-.45c-1.07-.16-2-.31-2-.92,0-.92.76-1.22,2.44-1.22,3.51,0,7.64,0,17.26.46,1.07,0,31.46,0,35-.16,3.36-.15,6.11-.45,7-.91a3.65,3.65,0,0,1,1.68-.61c.45,0,.61.61.61,1.37,0,1.07-.92,2.9-1.23,7.18-.15,2.29-.3,5.19-.61,9.16-.15,1.53-.61,2.6-1.22,2.6-.91,0-1.22-.76-1.22-2a15.2,15.2,0,0,0-.76-5c-1.07-3.51-4.28-5-11-5.65-2.6-.3-19.24-.46-20.92-.46-.61,0-.92.46-.92,1.53v42.15c0,1.07.15,1.53.92,1.53,2,0,20.77,0,24.28-.31,4.12-.3,6.11-.76,7.64-2.59.76-.92,1.22-1.53,1.83-1.53s.76.31.76,1.22-.76,3.52-1.22,8.56c-.46,4.73-.46,8.24-.61,10.38-.15,1.53-.46,2.29-1.07,2.29-.91,0-1.07-1.22-1.07-2.44a13.76,13.76,0,0,0-.61-4.28c-.61-2.29-2.44-4.43-7.94-5-4.12-.46-19.24-.76-21.84-.76a1,1,0,0,0-1.07,1.07v13.44c0,5.19-.15,22.91,0,26.11.31,6.26,1.22,9.62,5,11.15C945.9,206.65,950,207,956,207c4.58,0,9.62-.16,13.74-1.38,4.89-1.53,6.57-4.73,7.79-11.3.31-1.68.61-2.29,1.38-2.29s.91,1.22.91,2.29c0,1.22-1.22,11.61-2,14.81-1.07,4-2.29,4-8.25,4-11.3,0-16.34-.3-22.3-.45s-13.13-.46-19.09-.46c-3.66,0-7.33.61-11.3.46-1.68,0-2.44-.31-2.44-1.22,0-.46.76-.77,1.68-.92a19.12,19.12,0,0,0,3.51-.46c3.21-.76,5.19-2.9,5.5-14.36.15-6,.3-13.74.3-27.33Z"/><path class="cls-2" d="M1051.12,168.32c0,14.66,0,26.72.76,33.14.46,4.43,1.38,7.79,6,8.4a68.26,68.26,0,0,0,6.87.61c.92,0,1.22.46,1.22.92,0,.76-.76,1.22-2.44,1.22-8.4,0-18-.46-18.79-.46s-10.38.46-15,.46c-1.68,0-2.45-.31-2.45-1.22,0-.46.31-.92,1.22-.92a24.09,24.09,0,0,0,4.59-.61c3.05-.61,3.81-4,4.43-8.4.76-6.42.76-18.48.76-33.14v-64.6c-7.48.15-15.12.15-22.6.3-9.47.15-13.14,1.22-15.58,4.89a26.84,26.84,0,0,0-2.6,4.73c-.46,1.22-.91,1.53-1.53,1.53-.45,0-.76-.46-.76-1.37,0-1.53,3.06-14.67,3.36-15.89.31-.91.92-2.9,1.53-2.9,1.07,0,2.59,1.53,6.72,1.83,4.43.46,10.23.77,12.06.77h57.27a60.86,60.86,0,0,0,10.85-.77c2.29-.3,3.66-.76,4.27-.76.77,0,.77.92.77,1.83,0,4.58-.46,15.12-.46,16.8,0,1.38-.46,2-1.07,2s-1.07-.46-1.22-2.6c0-.61-.15-1.07-.15-1.68-.46-4.58-4.13-8.09-18.79-8.4-6.41-.15-12.83-.15-19.24-.3Z"/><path class="cls-2" d="M1202.61,145.56a.81.81,0,0,0,.92-.92v-3.2c0-23.83,0-28.1-.31-33-.3-5.19-1.52-7.64-6.56-8.71a29.09,29.09,0,0,0-5.2-.45c-.61,0-1.22-.31-1.22-.92,0-.92.77-1.22,2.45-1.22,6.87,0,16.49.46,17.25.46s10.39-.46,15-.46c1.68,0,2.45.3,2.45,1.22,0,.61-.62.92-1.23.92a23,23,0,0,0-3.81.45c-4.13.77-5.35,3.36-5.66,8.71-.3,4.89-.3,9.16-.3,33v26.88c0,14.66,0,26.72.76,33.14.46,4.43,1.38,7.79,6,8.4a68.26,68.26,0,0,0,6.87.61c.92,0,1.22.46,1.22.92,0,.76-.76,1.22-2.44,1.22-8.4,0-18-.46-18.79-.46s-10.38.46-15,.46c-1.68,0-2.45-.31-2.45-1.22,0-.46.31-.92,1.23-.92a24.09,24.09,0,0,0,4.58-.61c3.05-.61,3.82-4,4.43-8.4.76-6.42.76-18.48.76-33.14v-16a.89.89,0,0,0-.92-.92h-64.75a.81.81,0,0,0-.92.92v16c0,14.66,0,26.72.77,33.14.45,4.43,1.37,7.79,6,8.4a68.26,68.26,0,0,0,6.87.61c.92,0,1.23.46,1.23.92,0,.76-.77,1.22-2.45,1.22-8.4,0-18-.46-18.78-.46s-10.39.46-15,.46c-1.68,0-2.44-.31-2.44-1.22,0-.46.3-.92,1.22-.92a24,24,0,0,0,4.58-.61c3.06-.61,3.82-4,4.43-8.4.76-6.42.76-18.48.76-33.14V141.44c0-23.83,0-28.1-.3-33-.31-5.19-1.53-7.64-6.57-8.71a29.06,29.06,0,0,0-5.19-.45c-.61,0-1.22-.31-1.22-.92,0-.92.76-1.22,2.44-1.22,6.87,0,16.5.46,17.26.46s10.38-.46,15-.46c1.68,0,2.44.3,2.44,1.22,0,.61-.61.92-1.22.92a23.07,23.07,0,0,0-3.82.45c-4.12.77-5.35,3.36-5.65,8.71-.31,4.89-.31,9.16-.31,33v3.2a.81.81,0,0,0,.92.92Z"/><path class="cls-2" d="M1270.42,141.44c0-23.83,0-28.1-.31-33-.3-5.19-1.53-7.64-6.57-8.71a36.37,36.37,0,0,0-4.42-.45c-1.07-.16-2-.31-2-.92,0-.92.76-1.22,2.44-1.22,3.52,0,7.64,0,17.26.46,1.07,0,31.46,0,35-.16s6.11-.45,7-.91a3.69,3.69,0,0,1,1.68-.61c.46,0,.61.61.61,1.37,0,1.07-.92,2.9-1.22,7.18-.15,2.29-.31,5.19-.61,9.16-.15,1.53-.61,2.6-1.22,2.6-.92,0-1.22-.76-1.22-2a15.17,15.17,0,0,0-.77-5c-1.07-3.51-4.28-5-11-5.65-2.6-.3-19.25-.46-20.93-.46-.61,0-.91.46-.91,1.53v42.15c0,1.07.15,1.53.91,1.53,2,0,20.77,0,24.28-.31,4.13-.3,6.11-.76,7.64-2.59.77-.92,1.22-1.53,1.83-1.53.46,0,.77.31.77,1.22s-.77,3.52-1.22,8.56c-.46,4.73-.46,8.24-.61,10.38-.16,1.53-.46,2.29-1.07,2.29-.92,0-1.07-1.22-1.07-2.44a14.07,14.07,0,0,0-.61-4.28c-.62-2.29-2.45-4.43-7.95-5-4.12-.46-19.24-.76-21.84-.76a1,1,0,0,0-1.06,1.07v13.44c0,5.19-.16,22.91,0,26.11.3,6.26,1.22,9.62,5,11.15,2.59,1.07,6.71,1.38,12.67,1.38,4.58,0,9.62-.16,13.75-1.38,4.88-1.53,6.56-4.73,7.79-11.3.3-1.68.61-2.29,1.37-2.29.92,0,.92,1.22.92,2.29,0,1.22-1.23,11.61-2,14.81-1.07,4-2.29,4-8.25,4-11.3,0-16.34-.3-22.29-.45-6.11-.16-13.14-.46-19.09-.46-3.67,0-7.33.61-11.31.46-1.68,0-2.44-.31-2.44-1.22,0-.46.76-.77,1.68-.92a19,19,0,0,0,3.51-.46c3.21-.76,5.2-2.9,5.5-14.36.15-6,.31-13.74.31-27.33Z"/><path class="cls-2" d="M1368,162.82c0,22,4.89,31.46,11.46,37.72,7.48,7,14.35,8.4,23.06,8.4a32.08,32.08,0,0,0,24-11c7-8.71,8.86-21.69,8.86-37.42V141.44c0-23.83,0-28.1-.3-33-.31-5.19-1.53-7.64-6.57-8.71a29.06,29.06,0,0,0-5.19-.45c-.61,0-1.22-.31-1.22-.92,0-.92.76-1.22,2.44-1.22,6.87,0,15.27.46,16.19.46s8.24-.46,12.83-.46c1.68,0,2.44.3,2.44,1.22,0,.61-.61.92-1.22.92a23.07,23.07,0,0,0-3.82.45c-4.12.92-5.35,3.36-5.65,8.71-.31,4.89-.31,9.16-.31,33v16.34c0,16.49-1.83,34.82-14,45.66-11,9.78-22.45,11.3-31.46,11.3-5.19,0-20.62-.61-31.46-10.84-7.48-7.18-13.29-17.87-13.29-40.16v-22.3c0-23.83,0-28.1-.3-33-.31-5.19-1.53-7.64-6.57-8.71a29.06,29.06,0,0,0-5.19-.45c-.61,0-1.22-.31-1.22-.92,0-.92.76-1.22,2.44-1.22,6.87,0,16.19.46,17.56.46s10.54-.46,15.12-.46c1.68,0,2.45.3,2.45,1.22,0,.61-.61.92-1.22.92a23.07,23.07,0,0,0-3.82.45c-4.13.62-5.35,3.36-5.65,8.71-.31,4.89-.31,9.16-.31,33Z"/><path class="cls-2" d="M1477.34,210.62c-2.13-1.07-2.29-1.68-2.29-5.8,0-7.64.61-13.75.77-16.19.15-1.68.45-2.44,1.22-2.44s1.07.45,1.07,1.68a26.82,26.82,0,0,0,.46,5.65c2.29,11.3,12.37,15.57,22.6,15.57,14.66,0,21.84-10.53,21.84-20.31,0-10.54-4.43-16.64-17.57-27.49l-6.87-5.65c-16.19-13.29-19.85-22.76-19.85-33.14,0-16.34,12.22-27.49,31.61-27.49a59.07,59.07,0,0,1,14.21,1.53,24.93,24.93,0,0,0,5.34.76c1.22,0,1.53.31,1.53,1.07s-.61,5.8-.61,16.19c0,2.44-.31,3.51-1.07,3.51-.92,0-1.07-.76-1.22-2a26.93,26.93,0,0,0-2-7.64c-.91-1.68-5-8.09-19.09-8.09-10.54,0-18.78,6.56-18.78,17.71,0,8.71,4,14.2,18.63,25.66l4.27,3.36c18,14.2,22.3,23.67,22.3,35.89,0,6.26-2.44,17.87-13,25.35-6.57,4.58-14.81,6.41-23.06,6.41C1490.63,214.74,1483.61,213.68,1477.34,210.62Z"/><path class="cls-1" d="M427.22,258.15l-2.91,6c-3.2-1.86-7.23-3.16-9.7-3.16-2,0-3.34.74-3.34,2.21,0,5.24,16,2.25,16,13.21,0,6.07-5.37,9.27-12.13,9.27a22.58,22.58,0,0,1-13.86-4.85l3-5.93c3.12,2.73,7.8,4.55,11,4.55,2.43,0,3.94-.91,3.94-2.65,0-5.37-16-2.16-16-12.91,0-5.59,4.81-9.14,12.09-9.14A22.73,22.73,0,0,1,427.22,258.15Z"/><path class="cls-1" d="M453.16,285.44V255.12h7.71v30.32Z"/><path class="cls-1" d="M512.2,258.15l-2.9,6c-3.21-1.86-7.23-3.16-9.7-3.16-2,0-3.34.74-3.34,2.21,0,5.24,16,2.25,16,13.21,0,6.07-5.37,9.27-12.13,9.27a22.56,22.56,0,0,1-13.86-4.85l3-5.93c3.11,2.73,7.79,4.55,11,4.55,2.42,0,3.94-.91,3.94-2.65,0-5.37-16-2.16-16-12.91,0-5.59,4.81-9.14,12.09-9.14A22.72,22.72,0,0,1,512.2,258.15Z"/><path class="cls-1" d="M552.18,261.31v24.13h-7.71V261.31h-9.05v-6.24h25.9v6.24Z"/><path class="cls-1" d="M594,261.18v6h14.47v6.06H594v6.11h16.51v6.06H586.27V255.12H610v6.06Z"/><path class="cls-1" d="M663.64,285.44l0-19.71-7.28,16.68h-5L644,265.73v19.71h-6.89V255.07h8.45l8.23,18.07L662,255.07h8.41v30.37Z"/><path class="cls-1" d="M705.09,279.86l-2.21,5.58H695L708,255.12H716l12.78,30.32h-8.23l-2.17-5.58Zm6.67-17.07L707.34,274h8.75Z"/><path class="cls-1" d="M792.63,261.18v6H807.1v6.06H792.63v6.11h16.5v6.06H784.92V255.12h23.74v6.06Z"/><path class="cls-1" d="M848.81,255.12c9.53,0,16.12,6.15,16.12,15.16s-6.68,15.16-16.42,15.16H835.77V255.12Zm-5.33,24.17H849c4.73,0,8.1-3.64,8.1-9s-3.55-9.05-8.44-9.05h-5.16Z"/><path class="cls-1" d="M917.94,272.71c0,8-5.32,13.08-13.82,13.08s-14-5.07-14-13.08V255.12h7.71v17.59c0,4.11,2.64,6.63,6.33,6.63s6.11-2.52,6.11-6.63V255.12h7.66Z"/><path class="cls-1" d="M971.57,260l-4.46,5.29a10.39,10.39,0,0,0-7.63-3.95,8.47,8.47,0,0,0-8.45,8.8c0,5.07,3.64,8.92,8.45,8.92a11.37,11.37,0,0,0,7.63-3.55l4.5,4.76a18.3,18.3,0,0,1-12.52,5.55c-9.14,0-15.94-6.71-15.94-15.6s7-15.33,16.2-15.33A17.6,17.6,0,0,1,971.57,260Z"/><path class="cls-1" d="M1003.36,279.86l-2.21,5.58h-7.93l13.09-30.32h7.92L1027,285.44h-8.23l-2.16-5.58Zm6.67-17.07L1005.61,274h8.75Z"/><path class="cls-1" d="M1077.09,260l-4.47,5.29a10.35,10.35,0,0,0-7.62-3.95,8.47,8.47,0,0,0-8.45,8.8c0,5.07,3.64,8.92,8.45,8.92a11.32,11.32,0,0,0,7.62-3.55l4.51,4.76a18.3,18.3,0,0,1-12.52,5.55c-9.14,0-15.94-6.71-15.94-15.6s7-15.33,16.2-15.33A17.62,17.62,0,0,1,1077.09,260Z"/><path class="cls-1" d="M1102.29,285.44V255.12H1110v30.32Z"/><path class="cls-1" d="M1168.53,270.24c0,8.84-7,15.55-16.42,15.55s-16.38-6.67-16.38-15.55,7-15.38,16.38-15.38S1168.53,261.44,1168.53,270.24Zm-24.91,0a8.82,8.82,0,0,0,8.57,9.06c4.68,0,8.41-3.95,8.41-9.06s-3.73-9-8.41-9A8.72,8.72,0,0,0,1143.62,270.28Z"/><path class="cls-1" d="M1215.44,285.44l-14-18.67v18.67h-7.24V255.12h6.8l14,18.71V255.12h7.19v30.32Z"/><path class="cls-1" d="M1256.85,279.86l-2.21,5.58h-7.93l13.08-30.32h7.93l12.78,30.32h-8.23l-2.17-5.58Zm6.67-17.07L1259.1,274h8.75Z"/><path class="cls-1" d="M1325.55,279v6.45H1305V255.12h7.71V279Z"/></g></g></svg>