<svg xmlns="http://www.w3.org/2000/svg" viewBox="0 0 338.24 341.63"><defs><style>.cls-1{fill:#b49a5a;}.cls-2{fill:#363636;}</style></defs><title>Asset 1</title><g id="Layer_2" data-name="Layer 2"><g id="Camada_1" data-name="Camada 1"><path class="cls-1" d="M102.83,324.25C55.79,306.13,1.33,251.88,0,172.31A169.1,169.1,0,0,1,323,99c32.37,71,10.85,151-42.11,196.72v-8.5c0-4.79-1.1-10,.34-14.26,1.38-4.15,5.43-7.4,8.25-11.1,22.47-29.48,33.14-62.81,31.45-99.78a151.74,151.74,0,0,0-125-142.5C114.09,4.85,35.12,59.08,19.72,140.58A152,152,0,0,0,99.85,304.36c2.21,1.13,3.14,2.32,3,4.84C102.68,314.16,102.83,319.14,102.83,324.25Z"/><path class="cls-2" d="M275,275.5c-5.48,2.56-3.88,6.59-3.45,10.29.87,7.6,1.76,15.2,2.67,23H261.72c.46-4.17.88-8.25,1.35-12.31.52-4.44,1.06-8.87,1.65-13.3.41-3.09,1.18-6.28-3.42-6.95,1.6-1.67,3.44-2.84,4.09-4.48s.17-3.77.16-5.69q0-5.26-.06-10.53c0-.17-.17-.34-.43-.84L251.77,262c-6.17-7.75-14.41-12.41-23.45-15.85a122.36,122.36,0,0,0-34.2-7.22c-18.61-1.47-37.21-1.4-55.68,1.8-11,1.91-21.82,4.85-31.46,10.8-4,2.49-7.62,5.67-11.68,8.74L64.91,242c1.26-.74,2.16-1.36,3.13-1.85q50.67-25.89,101.35-51.78a9.31,9.31,0,0,1,9.12,0q50.69,26.24,101.4,52.4c.93.48,1.77,1.13,3.12,2-3.17,2.14-5.94,4.2-8.89,5.95a7,7,0,0,0-3.84,7.35,86.58,86.58,0,0,1-.23,9.24C270,269.35,268.67,273.83,275,275.5Z"/><path class="cls-2" d="M175.38,48.41c18.22,5,31.7,22.31,31.86,41,.06,7.33-.63,14.66-.89,22a48.82,48.82,0,0,0,.19,8.89c.65,4.33,3.52,6.22,7.82,5.36,3.94-.8,7.82-1.95,12.18-3.06.3,1.83.69,3.64.88,5.47,1.14,11,.89,21.87-4.1,32.14-4.86,10-12.36,16.89-23.08,20.12-1,.3-2,.46-3.58.83,4.91-10.27,12.7-19.23,8.5-31.65-.79.64-1.51,1.18-2.18,1.78-1.19,1.07-2.28,2.25-3.51,3.26-2.18,1.78-4.6,3.52-7.51,2.13s-2.85-4.54-2.54-7.29c.63-5.49,1.76-10.92,2.15-16.42.49-6.92-1.64-13.14-7-19.21,0,2.4,0,3.91,0,5.43-.15,14.72-4.55,27.57-16.31,37.23a27.78,27.78,0,0,1-14.48,6.16c-5.69.69-10-1.91-12.73-6.72-2-3.39-3.37-7.09-5-10.66-.52-1.13-1-2.28-1.76-4-6.76,15.85.85,27.36,9.46,39.17a47.93,47.93,0,0,1-6.26-1.31c-14.19-5-22.68-14.94-25.17-29.77-3.46-20.6,3.54-37.27,19.66-50.15,5.53-4.42,11.56-8.21,18.06-12.77-.49,3.47-.95,6-1.17,8.47a22.78,22.78,0,0,0-.07,6.33c1.62,8.25,7.31,11.75,14.9,8.37,12.51-5.56,19.51-15.61,21.38-29.18.16-1.15.13-2.33.21-3.5C186.07,66,184.57,55.89,175.38,48.41Z"/><path class="cls-2" d="M225.21,341.63,210,337.35v-3.83l.06-40.86c0-.32,0-.64,0-1-.06-5.16-2.89-8.52-7.35-8.73s-7.44,3.06-7.53,8.46c-.19,10.63-.16,21.27-.22,31.91,0,3.6,0,7.2,0,11.23l-15.42-1.48c0-8.53,0-16.91,0-25.28,0-5.53,0-11.07-.1-16.6-.09-4.74-2.73-7.78-6.61-7.84-4.79-.08-8.22,2.92-8.27,7.78-.13,12.12,0,24.25,0,36.38v5.32l-15.67.92c0-9.12,0-18,0-26.95,0-5.21.08-10.43-.14-15.64-.22-4.9-3.34-7.9-7.56-7.72s-7.14,3.35-7.27,8.09c0,.64,0,1.28,0,1.92,0,13,0,26,.09,38.94,0,2.6-.35,4-3.38,4.39-4,.51-7.83,1.74-12.22,2.77,0-2.25,0-4.25,0-6.25q.09-20.1.18-40.21c0-1.7-.12-3.4-.27-5.09-.27-2.84-1.82-4.53-4.72-4.63-2.3-.08-2.73-1.14-3-3.36-.69-5,1.34-8.19,5.32-10.92,8.18-5.59,17.33-8.54,26.95-10.05,21.94-3.46,43.85-3.46,65.59,1.54a58.17,58.17,0,0,1,20.85,9.24c3.93,2.79,5.51,7.29,3.82,11.71a2.82,2.82,0,0,1-1.91,1.2c-4.46.86-5.59,2-5.75,6.52-.13,4,0,8.08,0,12.13q0,18.51,0,37C225.36,339.36,225.28,340.31,225.21,341.63Z"/><path class="cls-1" d="M254.66,295c0,6.43,0,12.46,0,18.5a2.72,2.72,0,0,1-1.09,2c-4.7,2.6-9.48,5.08-14.78,7.89,0-6.49,0-12.29,0-18.09a2.43,2.43,0,0,1,1.07-1.69C244.58,300.84,249.36,298.11,254.66,295Z"/></g></g></svg>